<?xml version="1.0" encoding="utf-8"?>
<!-- Generator: Adobe Illustrator 21.1.0, SVG Export Plug-In . SVG Version: 6.00 Build 0)  -->
<svg version="1.1" id="Layer_1" xmlns="http://www.w3.org/2000/svg" xmlns:xlink="http://www.w3.org/1999/xlink" x="0px" y="0px"
	 viewBox="0 0 500 500" style="enable-background:new 0 0 500 500;" xml:space="preserve">
<g>
	<title>Asset 1</title>
	<path d="M86.8,301.7c0,12.2-11.7,21.7-24.5,17.9c-5.9-1.7-10.5-6.4-12.2-12.3c-4.4-15.3,10.1-29,25.5-22.9
		c6.8,2.7,11.2,9.5,11.2,16.8V301.7z M68.1,342.8c-10.4,0-18.8,8.4-18.8,18.8c0,10.4,8.4,18.8,18.8,18.8c10.4,0,18.8-8.4,18.8-18.8
		l0,0C86.9,351.2,78.5,342.8,68.1,342.8z M67.9,402.8c-11.1,0-20,9.6-18.8,20.9c1,8.6,7.9,15.5,16.5,16.5
		c11.4,1.3,21.1-7.5,21.1-18.6l0-0.1c0-10.3-8.4-18.7-18.7-18.7L67.9,402.8L67.9,402.8z M67.9,462.5c-11.1,0-19.9,9.6-18.6,20.9
		c0.9,8.6,7.9,15.6,16.5,16.5c11.3,1.2,20.9-7.6,20.9-18.6l0,0C86.7,470.9,78.3,462.5,67.9,462.5C67.9,462.4,67.9,462.4,67.9,462.5
		L67.9,462.5z M126.6,462.5c-11.1,0-19.9,9.6-18.6,20.9c0.9,8.6,7.9,15.6,16.5,16.5c11.3,1.2,20.9-7.6,20.9-18.6l0,0
		C145.4,470.9,137,462.5,126.6,462.5C126.6,462.4,126.6,462.4,126.6,462.5L126.6,462.5z M245.6,3.7c-10.4,0-18.8,8.4-18.8,18.8
		s8.4,18.8,18.8,18.8c10.4,0,18.8-8.4,18.8-18.8S255.9,3.7,245.6,3.7C245.6,3.7,245.6,3.7,245.6,3.7z M157.3,83.2
		c-10.4,0-18.8,8.4-18.8,18.8s8.4,18.8,18.8,18.8c10.4,0,18.8-8.4,18.8-18.8S167.7,83.2,157.3,83.2L157.3,83.2z M110.7,125.7
		c-10.4,0-18.8,8.4-18.8,18.8s8.4,18.8,18.8,18.8s18.8-8.4,18.8-18.8l0,0C129.5,134.1,121.1,125.7,110.7,125.7z M68.1,164.3
		c-10.4,0-18.8,8.4-18.8,18.8s8.4,18.8,18.8,18.8c10.4,0,18.8-8.4,18.8-18.8S78.5,164.3,68.1,164.3L68.1,164.3z M67.9,224.8
		c-11.1,0-19.9,9.6-18.6,20.9c0.9,8.6,7.9,15.6,16.5,16.5c11.3,1.2,20.9-7.6,20.9-18.6C86.7,233.2,78.3,224.8,67.9,224.8
		C67.9,224.8,67.9,224.8,67.9,224.8L67.9,224.8z M199.9,45.6c-10.4,0-18.8,8.4-18.8,18.8s8.4,18.8,18.8,18.8
		c10.4,0,18.8-8.4,18.8-18.8S210.3,45.6,199.9,45.6L199.9,45.6z M296.4,46.4c-13.4-3.9-25.6,6.8-24.2,20c0.9,8.6,7.9,15.6,16.5,16.6
		c11.3,1.3,20.9-7.5,20.9-18.6c0,0,0,0,0,0C309.6,56.2,304.3,48.7,296.4,46.4z M186.4,462.4c-11.1,0-19.9,9.5-18.7,20.9
		c0.9,8.6,7.9,15.6,16.5,16.5c11.3,1.3,20.9-7.5,20.9-18.6c0,0,0,0,0,0C205.1,470.9,196.7,462.5,186.4,462.4L186.4,462.4z
		 M245.6,462.4c-12.2,0-21.7,11.7-17.9,24.5c1.7,5.9,6.4,10.5,12.3,12.3c15.3,4.4,29-10.1,22.9-25.5c-2.7-6.8-9.5-11.2-16.9-11.2
		H245.6L245.6,462.4z M305.4,462.4c-12.2,0-21.7,11.7-17.9,24.5c1.7,5.9,6.4,10.5,12.3,12.2c15.3,4.4,29-10.1,22.9-25.6
		c-2.7-6.8-9.5-11.1-16.8-11.1L305.4,462.4L305.4,462.4z M364.2,462.4c-12.2,0-21.7,11.7-17.9,24.5c1.7,5.9,6.4,10.5,12.3,12.2
		c15.3,4.4,29-10.1,22.9-25.6c-2.7-6.8-9.5-11.1-16.8-11.1L364.2,462.4L364.2,462.4z M425.1,462.4c-12.2,0-21.7,11.7-17.9,24.5
		c1.7,5.9,6.4,10.5,12.3,12.2c15.3,4.4,29-10.1,22.9-25.6c-2.7-6.8-9.5-11.1-16.8-11.1L425.1,462.4L425.1,462.4z M425.1,282.4
		c-11.1,0-19.9,9.6-18.6,20.9c0.9,8.6,7.9,15.6,16.5,16.5c11.3,1.2,20.9-7.6,20.9-18.6v0C443.8,290.8,435.4,282.4,425.1,282.4
		L425.1,282.4L425.1,282.4z M425.1,342.7c-10.4,0-18.8,8.4-18.8,18.8s8.4,18.8,18.8,18.8c10.4,0,18.8-8.4,18.8-18.8
		C443.8,351.1,435.4,342.8,425.1,342.7L425.1,342.7z M425.1,402.8c-11.1,0-19.9,9.5-18.7,20.9c0.9,8.6,7.9,15.6,16.5,16.5
		c11.3,1.3,20.9-7.5,20.9-18.6v0C443.8,411.2,435.4,402.8,425.1,402.8L425.1,402.8L425.1,402.8z M425.1,224.8
		c-11.1,0-19.9,9.6-18.6,20.9c0.9,8.6,7.9,15.6,16.5,16.5c11.3,1.2,20.9-7.6,20.9-18.6v0C443.8,233.2,435.4,224.8,425.1,224.8
		L425.1,224.8L425.1,224.8z M425.1,167.1c-11.1,0-19.9,9.6-18.6,20.9c0.9,8.6,7.9,15.6,16.5,16.5c11.3,1.2,20.9-7.6,20.9-18.6v0
		C443.8,175.5,435.4,167.1,425.1,167.1L425.1,167.1L425.1,167.1z M381.5,124.3c-11.1,0-19.9,9.6-18.6,20.9
		c0.9,8.6,7.9,15.6,16.5,16.5c11.3,1.2,20.9-7.6,20.9-18.6C400.2,132.7,391.8,124.3,381.5,124.3
		C381.5,124.3,381.4,124.3,381.5,124.3L381.5,124.3z M335.8,84.2c-10.4,0-18.7,8.4-18.7,18.8c0,10.4,8.4,18.7,18.8,18.7
		s18.7-8.4,18.7-18.8C354.5,92.6,346.1,84.2,335.8,84.2C335.8,84.2,335.8,84.2,335.8,84.2z"/>
</g>
</svg>
