<?xml version="1.0" encoding="utf-8"?>
<!-- Generator: Adobe Illustrator 21.1.0, SVG Export Plug-In . SVG Version: 6.00 Build 0)  -->
<svg version="1.1" id="Layer_1" xmlns="http://www.w3.org/2000/svg" xmlns:xlink="http://www.w3.org/1999/xlink" x="0px" y="0px"
	 viewBox="0 0 399.4 500" enable-background="new 0 0 399.4 500" xml:space="preserve">
<g>
	<title>Asset 1</title>
	<path d="M42.3,301.7c0,12.2-11.7,21.7-24.5,17.9c-5.9-1.7-10.5-6.4-12.2-12.3c-4.4-15.3,10.1-29,25.5-22.9
		c6.8,2.7,11.2,9.5,11.2,16.8V301.7z M23.6,342.8c-10.4,0-18.8,8.4-18.8,18.8s8.4,18.8,18.8,18.8s18.8-8.4,18.8-18.8l0,0
		C42.4,351.2,34,342.8,23.6,342.8z M23.4,402.8c-11.1,0-20,9.6-18.8,20.9c1,8.6,7.9,15.5,16.5,16.5c11.4,1.3,21.1-7.5,21.1-18.6
		v-0.1C42.2,411.2,33.8,402.8,23.4,402.8L23.4,402.8L23.4,402.8z M23.4,462.5c-11.1,0-19.9,9.6-18.6,20.9
		c0.9,8.6,7.9,15.6,16.5,16.5c11.3,1.2,20.9-7.6,20.9-18.6l0,0C42.2,470.9,33.8,462.5,23.4,462.5C23.4,462.4,23.4,462.4,23.4,462.5
		L23.4,462.5z M82.1,462.5c-11.1,0-19.9,9.6-18.6,20.9c0.9,8.6,7.9,15.6,16.5,16.5c11.3,1.2,20.9-7.6,20.9-18.6l0,0
		C100.9,470.9,92.5,462.5,82.1,462.5C82.1,462.4,82.1,462.4,82.1,462.5L82.1,462.5z M201.1,3.7c-10.4,0-18.8,8.4-18.8,18.8
		s8.4,18.8,18.8,18.8c10.4,0,18.8-8.4,18.8-18.8S211.4,3.7,201.1,3.7L201.1,3.7z M112.8,83.2C102.4,83.2,94,91.6,94,102
		s8.4,18.8,18.8,18.8c10.4,0,18.8-8.4,18.8-18.8S123.2,83.2,112.8,83.2L112.8,83.2z M66.2,125.7c-10.4,0-18.8,8.4-18.8,18.8
		s8.4,18.8,18.8,18.8S85,154.9,85,144.5l0,0C85,134.1,76.6,125.7,66.2,125.7z M23.6,164.3c-10.4,0-18.8,8.4-18.8,18.8
		s8.4,18.8,18.8,18.8s18.8-8.4,18.8-18.8S34,164.3,23.6,164.3L23.6,164.3z M23.4,224.8c-11.1,0-19.9,9.6-18.6,20.9
		c0.9,8.6,7.9,15.6,16.5,16.5c11.3,1.2,20.9-7.6,20.9-18.6C42.2,233.2,33.8,224.8,23.4,224.8L23.4,224.8L23.4,224.8z M155.4,45.6
		c-10.4,0-18.8,8.4-18.8,18.8s8.4,18.8,18.8,18.8c10.4,0,18.8-8.4,18.8-18.8S165.8,45.6,155.4,45.6L155.4,45.6z M251.9,46.4
		c-13.4-3.9-25.6,6.8-24.2,20c0.9,8.6,7.9,15.6,16.5,16.6c11.3,1.3,20.9-7.5,20.9-18.6l0,0C265.1,56.2,259.8,48.7,251.9,46.4z
		 M141.9,462.4c-11.1,0-19.9,9.5-18.7,20.9c0.9,8.6,7.9,15.6,16.5,16.5c11.3,1.3,20.9-7.5,20.9-18.6l0,0
		C160.6,470.9,152.2,462.5,141.9,462.4L141.9,462.4z M201.1,462.4c-12.2,0-21.7,11.7-17.9,24.5c1.7,5.9,6.4,10.5,12.3,12.3
		c15.3,4.4,29-10.1,22.9-25.5c-2.7-6.8-9.5-11.2-16.9-11.2L201.1,462.4L201.1,462.4z M260.9,462.4c-12.2,0-21.7,11.7-17.9,24.5
		c1.7,5.9,6.4,10.5,12.3,12.2c15.3,4.4,29-10.1,22.9-25.6c-2.7-6.8-9.5-11.1-16.8-11.1H260.9L260.9,462.4z M319.7,462.4
		c-12.2,0-21.7,11.7-17.9,24.5c1.7,5.9,6.4,10.5,12.3,12.2c15.3,4.4,29-10.1,22.9-25.6c-2.7-6.8-9.5-11.1-16.8-11.1H319.7
		L319.7,462.4z M380.6,462.4c-12.2,0-21.7,11.7-17.9,24.5c1.7,5.9,6.4,10.5,12.3,12.2c15.3,4.4,29-10.1,22.9-25.6
		c-2.7-6.8-9.5-11.1-16.8-11.1H380.6L380.6,462.4z M380.6,282.4c-11.1,0-19.9,9.6-18.6,20.9c0.9,8.6,7.9,15.6,16.5,16.5
		c11.3,1.2,20.9-7.6,20.9-18.6l0,0C399.3,290.8,390.9,282.4,380.6,282.4L380.6,282.4L380.6,282.4z M380.6,342.7
		c-10.4,0-18.8,8.4-18.8,18.8s8.4,18.8,18.8,18.8s18.8-8.4,18.8-18.8C399.3,351.1,390.9,342.8,380.6,342.7L380.6,342.7z
		 M380.6,402.8c-11.1,0-19.9,9.5-18.7,20.9c0.9,8.6,7.9,15.6,16.5,16.5c11.3,1.3,20.9-7.5,20.9-18.6l0,0
		C399.3,411.2,390.9,402.8,380.6,402.8L380.6,402.8L380.6,402.8z M380.6,224.8c-11.1,0-19.9,9.6-18.6,20.9
		c0.9,8.6,7.9,15.6,16.5,16.5c11.3,1.2,20.9-7.6,20.9-18.6l0,0C399.3,233.2,390.9,224.8,380.6,224.8L380.6,224.8L380.6,224.8z
		 M380.6,167.1c-11.1,0-19.9,9.6-18.6,20.9c0.9,8.6,7.9,15.6,16.5,16.5c11.3,1.2,20.9-7.6,20.9-18.6l0,0
		C399.3,175.5,390.9,167.1,380.6,167.1L380.6,167.1L380.6,167.1z M337,124.3c-11.1,0-19.9,9.6-18.6,20.9c0.9,8.6,7.9,15.6,16.5,16.5
		c11.3,1.2,20.9-7.6,20.9-18.6C355.7,132.7,347.3,124.3,337,124.3C337,124.3,336.9,124.3,337,124.3L337,124.3z M291.3,84.2
		c-10.4,0-18.7,8.4-18.7,18.8s8.4,18.7,18.8,18.7s18.7-8.4,18.7-18.8C310,92.6,301.6,84.2,291.3,84.2L291.3,84.2z"/>
</g>
</svg>
